<svg
  xmlns="http://www.w3.org/2000/svg"
  fill="none"
  viewBox="0 0 32 32"
>
  <path
    fill="#8C8C8C"
    d="M16 17.13c4.7 0 8.62-1.38 9.7-3.24.19.33.3.67.3 1.02v3.04c0 2.35-4.48 4.26-10 4.26S6 20.3 6 17.95v-3.04c0-.35.11-.69.3-1.02 1.08 1.86 5 3.24 9.7 3.24Z"
  />
  <path
    fill="#8C8C8C"
    d="M16 23.41c4.7 0 8.62-1.38 9.7-3.23.19.32.3.66.3 1.01v3.05c0 2.35-4.48 4.25-10 4.25S6 26.6 6 24.24v-3.05a2 2 0 0 1 .3-1.01c1.08 1.85 5 3.23 9.7 3.23ZM6.28 7.81c.19 1.72 4.46 3.1 9.72 3.1 5.26 0 9.53-1.38 9.72-3.1.18.32.28.64.28.98v3.04c0 2.35-4.48 4.25-10 4.25s-10-1.9-10-4.25V8.79c0-.34.1-.66.28-.98Z"
  />
  <path
    fill="#8C8C8C"
    d="M16 9.95c-5.38 0-9.74-1.45-9.74-3.22 0-1.78 4.36-3.22 9.74-3.22s9.74 1.44 9.74 3.22c0 1.77-4.36 3.22-9.74 3.22Z"
  />
</svg>