<svg
  xmlns="http://www.w3.org/2000/svg"
  fill="none"
  viewBox="0 0 32 32"
>
  <path
    fill="#000"
    d="M17.85 13H21Zm-3.75 0h3.15Zm-3.67 0h3.14Zm-3.68 0h3.07ZM3 13h3.15Zm3.75-3.5h3.07Zm3.68 0h3.14Zm3.67 0h3.15Zm0-3.5h3.15Z"
  />
  <path
    stroke="#8C8C8C"
    stroke-width="3"
    d="M17.85 13H21m-6.9 0h3.15m-6.82 0h3.14m-6.82 0h3.07M3 13h3.15m.6-3.5h3.07m.6 0h3.15m.53 0h3.15M14.1 6h3.15"
  />
  <path
    fill="#8C8C8C"
    d="M30 13.4s-1.24-1.26-3.8-.81c-.27-2.17-2.41-3.43-2.41-3.43s-2 2.6-.56 5.51c-.41.23-1.1.52-2.14.52H2.1C1.76 16.61 1.76 26 11.3 26c6.83 0 11.94-3.43 14.36-9.69 3.59.3 4.35-2.9 4.35-2.9Z"
  />
</svg>