<svg
  xmlns="http://www.w3.org/2000/svg"
  fill="none"
  viewBox="0 0 32 32"
>
  <path
    fill="#8C8C8C"
    d="m22.52 20 .63-.38c1.4-1.2.9-3.37-1.47-6.42.05 1.53.3 3.1.55 4.78l.3 2.02ZM9 25.8c.8 3.43 2.82 5.27 5.13 6.05 1.27.23 2.54.17 3.82-.1.2-.1.38-.23.55-.35.5-.32.93-.7 1.32-1.07-1.62-.7-3.27-2.05-4.82-3.65-1.2-.08-2.38-.2-3.4-.36-1-.1-1.85-.27-2.6-.52ZM8.65 9.67l-.05.36a15.24 15.24 0 0 0-.1 5.3c.28-1.86.65-3.76 1.18-5.58.07-.28.14-.58.25-.88h.02c.4-1.25.85-2.45 1.38-3.57-1 1.32-1.88 2.8-2.68 4.37Z"
  />
  <path
    fill="#8C8C8C"
    d="M8.47 28.5a9.21 9.21 0 0 0 2.98 2.48 8.96 8.96 0 0 1-3-5.36 5.9 5.9 0 0 1-2.27-1.42 9.61 9.61 0 0 0 2.3 4.3Zm-.15-11.75c-.45-1.47-.6-3.18-.45-5.1-.27.57-.52 1.2-.8 1.82-1.12 3.28-1.62 6.68-1.15 9.68.53.8 1.3 1.45 2.4 1.9a31.3 31.3 0 0 1 0-8.3Zm.55 8.45c0 .03 0 .03 0 0 .8.3 1.7.5 2.78.63.88.15 1.82.25 2.82.32A37.15 37.15 0 0 1 9.4 19c-.28-.4-.5-.82-.7-1.25-.27 3.05-.2 5.77.18 7.45Zm12.86-7.18c-.28-1.87-.58-3.77-.58-5.57-3.17-2.95-6.25-6.1-6.12-11.17l-.28.22c-.55.48-1.1 1-1.63 1.58a21.64 21.64 0 0 0-2.72 5.87c-.4 2.9 2.4 8.57 6.12 12.93 1.8-.08 3.7-.63 5.53-1.63-.1-.73-.2-1.48-.32-2.23Zm2.5 9.93a8.51 8.51 0 0 1-1.96-.65 8.1 8.1 0 0 1-1.6 2.85c.28.08.53.15.78.18 1.05-.63 2-1.45 2.78-2.38Z"
  />
  <path
    fill="#8C8C8C"
    d="M15.53.9c-.28 4.88 2.52 7.98 5.57 10.8-2.68-3.55-4.23-5.67-4.23-11.62-.42.22-.87.5-1.35.82Zm5.27 25.55c-1.32.2-2.7.28-4.05.28-.35 0-.73 0-1.07-.03 1.45 1.45 3 2.65 4.5 3.25a7.52 7.52 0 0 0 1.64-2.9c-.34-.18-.7-.38-1.02-.6Zm-.6-.4c-.5-.35-.95-.73-1.38-1.1a27.05 27.05 0 0 1-2.52-2.55 8.5 8.5 0 0 1-4.78-1.27 5 5 0 0 1-.57-.43 35.84 35.84 0 0 0 4.23 5.5c1.62.07 3.37.05 5.02-.15Zm2.4.05c-.05.25-.1.47-.18.72.7.36 1.43.6 2.15.68A9.11 9.11 0 0 0 26 24.68c-.93.62-2.1 1.1-3.4 1.42Z"
  />
  <path
    fill="#8C8C8C"
    d="M11.8 20.7a8.02 8.02 0 0 0 4.07 1.2c-3.07-3.65-5.44-8.1-5.92-11.25-.57 2.22-.77 3.6-1.1 5.9v.05a19 19 0 0 0 .93 2.02c.52.86 1.2 1.55 2.02 2.08Zm10.32.1c-1.7.93-3.47 1.45-5.17 1.57.73.8 1.45 1.55 2.2 2.2.53.48 1.13.95 1.78 1.38l1.22-.22a18.1 18.1 0 0 0-.02-4.93Zm.55 4.77c1.4-.37 2.63-.9 3.53-1.64.38-1.73.25-3.6-.57-5.6a58.32 58.32 0 0 0-2.08-3.25c1.2 2.2 1.18 3.8-.1 4.9l-.02.02c-.28.18-.55.35-.86.52.23 1.73.33 3.46.1 5.05Z"
  />
</svg>