<svg
  xmlns="http://www.w3.org/2000/svg"
  fill="none"
  viewBox="0 0 32 32"
>
  <path
    fill="#8C8C8C"
    d="M17.2 2.3c-.7-.4-1.7-.4-2.4 0L4.2 8.2C3.5 8.6 3 9.3 3 10v11.8c0 .8.5 1.6 1.2 2l3 1.6c1.3.6 2.8.7 4 0 1-.4 1.4-1.6 1.4-2.6V11.1c0-.1-.1-.3-.3-.3H11c-.1 0-.3.1-.3.3v11.7c0 .5-.3 1-.9 1.2-1.2.4-4.6-1.8-4.6-1.8a.3.3 0 0 1-.2-.3V10c0-.1.1-.3.3-.3l10.6-5.9h.4l10.6 5.9c.2 0 .3.2.3.3v12c0 .1 0 .2-.2.3L16.3 28c-.1.1-.3.2-.5.1l-2.7-1.5h-.3l-1.3.5c-.6.3-.5.4 0 .7l3.3 1.9c.7.4 1.6.4 2.3 0l10.7-5.9a2 2 0 0 0 1.2-1.9V10.1c0-.8-.4-1.5-1.1-1.9L17.2 2.3Z"
  />
  <path
    fill="#8C8C8C"
    d="M22.5 11.2a9 9 0 0 0-4.6-.7 5 5 0 0 0-3 1.2 3 3 0 0 0-.7 3.2c.3.8 1 1.2 1.7 1.5 1 .3 2 .4 3 .5 1 .1 1.8.2 2.7.5.4.1.8.3 1 .7 0 .5-.1 1-.5 1.3-1.2 1-4.5.8-5.7 0-.5-.2-.7-.8-.8-1.3 0-.2 0-.4-.3-.3H14c-.2 0-.4 0-.4.2 0 2.5 2.2 3.5 4.3 3.8 1.2 0 2.4 0 3.6-.2 1-.2 1.8-.6 2.4-1.2.8-.9 1-2.1.6-3.2-.3-.7-1-1.2-1.8-1.5-1-.4-2.2-.5-3.2-.6-1.3-.2-3-.1-3.3-1-.2-.5 0-1 .4-1.3 1.1-.8 3.4-.7 4.6-.1.6.2.9.8 1 1.4 0 .1.1.3.3.3H24c.1 0 .3 0 .3-.2 0-1.2-.6-2.4-1.7-3h-.1Z"
  />
</svg>