<svg
  xmlns="http://www.w3.org/2000/svg"
  fill="none"
  viewBox="0 0 32 32"
>
  <path
    fill="#8C8C8C"
    d="M25.67 11.43c-.32-.11-.65-.2-.97-.3l.15-.64c.73-3.46.25-6.24-1.38-7.16-1.56-.88-4.12.04-6.7 2.23l-.76.67-.5-.45c-2.7-2.34-5.42-3.33-7.05-2.42-1.57.89-2.03 3.5-1.37 6.78.06.32.14.65.22.97-.37.1-.74.21-1.11.34C3.03 12.52 1 14.22 1 15.98c0 1.8 2.17 3.62 5.49 4.72l.81.25c-.1.34-.17.7-.24 1.04-.62 3.22-.13 5.78 1.43 6.66 1.6.9 4.31-.03 6.94-2.27l.62-.56.81.72c2.56 2.14 5.08 3 6.63 2.12 1.61-.91 2.14-3.65 1.45-7-.05-.25-.1-.51-.17-.78.19-.05.37-.1.55-.17 3.44-1.1 5.68-2.9 5.68-4.73 0-1.77-2.1-3.47-5.33-4.55ZM17.6 6.5c2.2-1.89 4.28-2.63 5.22-2.1 1 .56 1.4 2.84.76 5.83l-.13.58c-1.32-.3-2.66-.5-4.01-.62a29.4 29.4 0 0 0-2.54-3.08l.69-.62ZM9.86 17.48a38.67 38.67 0 0 0 1.79 3c-.93-.1-1.85-.24-2.76-.42.26-.84.58-1.7.97-2.6v.02Zm0-2.94A26.9 26.9 0 0 1 8.9 12c.85-.18 1.77-.34 2.71-.46a34.54 34.54 0 0 0-1.76 3v-.01Zm.68 1.47a32.32 32.32 0 0 1 2.73-4.62 38.4 38.4 0 0 1 5.47 0 37.29 37.29 0 0 1 2.74 4.6 38.58 38.58 0 0 1-2.73 4.63 40.5 40.5 0 0 1-5.47 0A35 35 0 0 1 10.54 16Zm10.75 2.97c.3-.51.6-1.03.88-1.55.38.84.71 1.7 1 2.57-.92.2-1.86.36-2.8.46.32-.49.63-.98.93-1.48Zm.87-4.44a45.14 45.14 0 0 0-1.78-2.98 31 31 0 0 1 2.73.46c-.27.85-.6 1.7-.95 2.52ZM16 8.01c.63.66 1.22 1.36 1.77 2.08a37.07 37.07 0 0 0-3.55 0c.56-.72 1.15-1.41 1.78-2.08ZM9.1 4.45c1-.57 3.21.24 5.56 2.26l.45.4c-.92.98-1.78 2-2.56 3.09a32 32 0 0 0-4 .6l-.21-.9c-.55-2.8-.18-4.9.76-5.44Zm-1.47 15.3-.74-.23a10.94 10.94 0 0 1-3.5-1.8c-.74-.63-1.12-1.25-1.12-1.74 0-1.07 1.63-2.43 4.35-3.35.34-.11.68-.22 1.03-.31.4 1.26.9 2.48 1.46 3.68a30 30 0 0 0-1.48 3.74Zm6.94 5.69c-.98.88-2.12 1.57-3.36 2.05-.91.31-1.65.32-2.1.07-.94-.53-1.34-2.58-.8-5.33l.22-.98c1.33.28 2.68.47 4.04.57a30.63 30.63 0 0 0 2.58 3.1l-.57.52Zm1.47-1.41a28.14 28.14 0 0 1-1.8-2.1 41.6 41.6 0 0 0 3.56-.01c-.55.73-1.14 1.43-1.76 2.11Zm7.78 1.73c-.17.94-.54 1.57-.98 1.82-.94.53-2.97-.16-5.15-1.99-.25-.2-.5-.43-.75-.67.9-.98 1.75-2.02 2.51-3.1 1.37-.12 2.73-.32 4.06-.61.07.23.12.47.17.7.3 1.48.34 2.81.14 3.85Zm1.09-6.23-.5.15c-.42-1.26-.93-2.5-1.53-3.7a30.1 30.1 0 0 0 1.47-3.64c.3.08.6.17.89.27 2.77.93 4.47 2.3 4.47 3.37 0 1.12-1.83 2.59-4.8 3.55Z"
  />
  <path
    fill="#8C8C8C"
    d="M16 18.66a2.69 2.69 0 1 0 .01-5.37 2.69 2.69 0 0 0-.01 5.37Z"
  />
</svg>