<svg fill="none" xmlns="http://www.w3.org/2000/svg" viewBox="0 0 32 32">
  <path data-highlight="fill" fill-rule="evenodd" clip-rule="evenodd"
    d="M16.013 0C7.158 0 0 7.333 0 16.406c0 7.252 4.587 13.39 10.95 15.563.795.163 1.086-.353 1.086-.788 0-.38-.026-1.684-.026-3.042-4.454.978-5.382-1.955-5.382-1.955-.716-1.902-1.777-2.39-1.777-2.39-1.458-1.005.107-1.005.107-1.005 1.617.108 2.465 1.684 2.465 1.684 1.432 2.498 3.739 1.792 4.666 1.358.133-1.06.557-1.793 1.008-2.2-3.553-.38-7.29-1.793-7.29-8.095 0-1.792.635-3.26 1.643-4.4-.16-.407-.716-2.091.159-4.346 0 0 1.352-.434 4.4 1.684a15.154 15.154 0 0 1 4.004-.543c1.352 0 2.73.19 4.003.543 3.05-2.118 4.402-1.684 4.402-1.684.875 2.255.317 3.939.158 4.346 1.035 1.14 1.644 2.608 1.644 4.4 0 6.302-3.738 7.687-7.317 8.095.583.516 1.087 1.493 1.087 3.042 0 2.2-.026 3.965-.026 4.508 0 .435.291.951 1.087.788C27.413 29.796 32 23.658 32 16.406 32.026 7.333 24.842 0 16.013 0Z"
    fill="#868686" />
</svg>