<svg fill="none" xmlns="http://www.w3.org/2000/svg" viewBox="0 0 32 32">
  <path
    data-highlight="fill"
    d="M3.556 32h24.888A3.556 3.556 0 0 0 32 28.444V3.556A3.556 3.556 0 0 0 28.444 0H3.556A3.556 3.556 0 0 0 0 3.556v24.888A3.556 3.556 0 0 0 3.556 32Z"
    fill="#868686" />
  <path
    d="M27.556 27.556h-4.75v-8.088c0-2.218-.842-3.457-2.597-3.457-1.91 0-2.907 1.29-2.907 3.457v8.088h-4.576V12.148h4.576v2.075s1.376-2.546 4.646-2.546c3.268 0 5.608 1.996 5.608 6.124v9.755ZM7.266 10.13a2.833 2.833 0 0 1-2.822-2.843 2.832 2.832 0 0 1 2.822-2.844c1.56 0 2.822 1.274 2.822 2.844 0 1.57-1.263 2.843-2.822 2.843ZM4.903 27.556h4.772V12.148H4.903v15.408Z"
    fill="#1f1f1f" />
</svg>