<svg fill="none" xmlns="http://www.w3.org/2000/svg" viewBox="0 0 32 32">
  <path
    data-highlight="fill"
    d="M16 31.98c8.826 0 15.98-7.155 15.98-15.98C31.98 7.174 24.826.02 16 .02S.02 7.174.02 16c0 8.825 7.154 15.98 15.98 15.98Z"
    fill="#868686" />
  <path
    d="m6.67 15.861 10.762-4.433c1.062-.462 4.664-1.94 4.664-1.94s1.663-.647 1.524.924c-.046.646-.415 2.91-.785 5.357l-1.154 7.251s-.093 1.062-.878 1.247c-.785.185-2.078-.646-2.309-.831-.185-.139-3.464-2.217-4.665-3.233-.323-.277-.693-.831.046-1.478a176.51 176.51 0 0 0 4.85-4.619c.554-.554 1.108-1.847-1.2-.277l-6.513 4.388s-.739.462-2.125.046a95.95 95.95 0 0 1-3.002-.97s-1.108-.693.786-1.432Z"
    fill="#1f1f1f" />
</svg>